<mxfile host="65bd71144e" modified="2020-11-20T10:32:38.366Z" agent="5.0 (Windows NT 10.0; Win64; x64) AppleWebKit/537.36 (KHTML, like Gecko) Code/1.51.1 Chrome/83.0.4103.122 Electron/9.3.3 Safari/537.36" version="13.6.5" etag="TvPARbCT6imdBUjGwHTj">
    <diagram id="99jxBt33ogkT8HIn3rIm" name="第 1 页">
        <mxGraphModel dx="734" dy="430" grid="1" gridSize="10" guides="1" tooltips="1" connect="1" arrows="1" fold="1" page="1" pageScale="1" pageWidth="827" pageHeight="1169" background="#ffffff" math="0" shadow="0">
            <root>
                <mxCell id="0"/>
                <mxCell id="1" parent="0"/>
                <mxCell id="2" value="" style="endArrow=none;html=1;strokeColor=#000000;strokeWidth=3;" edge="1" parent="1">
                    <mxGeometry width="50" height="50" relative="1" as="geometry">
                        <mxPoint x="150" y="210" as="sourcePoint"/>
                        <mxPoint x="150" y="90" as="targetPoint"/>
                    </mxGeometry>
                </mxCell>
                <mxCell id="3" value="&lt;font color=&quot;#000000&quot;&gt;state == 6&lt;/font&gt;" style="text;html=1;strokeColor=none;fillColor=none;align=center;verticalAlign=middle;whiteSpace=wrap;rounded=0;" vertex="1" parent="1">
                    <mxGeometry x="60" y="90" width="60" height="20" as="geometry"/>
                </mxCell>
                <mxCell id="4" value="&lt;font color=&quot;#000000&quot;&gt;next_PC == PC_end&lt;/font&gt;" style="text;html=1;strokeColor=none;fillColor=none;align=center;verticalAlign=middle;whiteSpace=wrap;rounded=0;" vertex="1" parent="1">
                    <mxGeometry x="30" y="110" width="120" height="20" as="geometry"/>
                </mxCell>
                <mxCell id="5" value="&lt;font color=&quot;#000000&quot;&gt;posedge clk&lt;/font&gt;" style="text;html=1;strokeColor=none;fillColor=none;align=center;verticalAlign=middle;whiteSpace=wrap;rounded=0;" vertex="1" parent="1">
                    <mxGeometry x="100" y="20" width="90" height="20" as="geometry"/>
                </mxCell>
                <mxCell id="6" value="&lt;font color=&quot;#000000&quot;&gt;state &amp;lt;= 0&lt;/font&gt;" style="text;html=1;strokeColor=none;fillColor=none;align=center;verticalAlign=middle;whiteSpace=wrap;rounded=0;" vertex="1" parent="1">
                    <mxGeometry x="150" y="123" width="60" height="20" as="geometry"/>
                </mxCell>
                <mxCell id="7" value="" style="endArrow=classic;html=1;strokeWidth=3;strokeColor=#FF8000;" edge="1" parent="1">
                    <mxGeometry width="50" height="50" relative="1" as="geometry">
                        <mxPoint x="150" y="40" as="sourcePoint"/>
                        <mxPoint x="150" y="80" as="targetPoint"/>
                    </mxGeometry>
                </mxCell>
                <mxCell id="8" value="" style="endArrow=none;html=1;strokeColor=#000000;strokeWidth=3;" edge="1" parent="1">
                    <mxGeometry width="50" height="50" relative="1" as="geometry">
                        <mxPoint x="289" y="210" as="sourcePoint"/>
                        <mxPoint x="289" y="90" as="targetPoint"/>
                    </mxGeometry>
                </mxCell>
                <mxCell id="9" value="&lt;font color=&quot;#000000&quot;&gt;posedge clk&lt;/font&gt;" style="text;html=1;strokeColor=none;fillColor=none;align=center;verticalAlign=middle;whiteSpace=wrap;rounded=0;" vertex="1" parent="1">
                    <mxGeometry x="239" y="20" width="90" height="20" as="geometry"/>
                </mxCell>
                <mxCell id="10" value="" style="endArrow=classic;html=1;strokeWidth=3;strokeColor=#FF8000;" edge="1" parent="1">
                    <mxGeometry width="50" height="50" relative="1" as="geometry">
                        <mxPoint x="289" y="40" as="sourcePoint"/>
                        <mxPoint x="289" y="80" as="targetPoint"/>
                    </mxGeometry>
                </mxCell>
                <mxCell id="11" value="" style="endArrow=none;html=1;strokeColor=#000000;strokeWidth=3;" edge="1" parent="1">
                    <mxGeometry width="50" height="50" relative="1" as="geometry">
                        <mxPoint x="419" y="210" as="sourcePoint"/>
                        <mxPoint x="419" y="90" as="targetPoint"/>
                    </mxGeometry>
                </mxCell>
                <mxCell id="12" value="&lt;font color=&quot;#000000&quot;&gt;posedge clk&lt;/font&gt;" style="text;html=1;strokeColor=none;fillColor=none;align=center;verticalAlign=middle;whiteSpace=wrap;rounded=0;" vertex="1" parent="1">
                    <mxGeometry x="369" y="20" width="90" height="20" as="geometry"/>
                </mxCell>
                <mxCell id="13" value="" style="endArrow=classic;html=1;strokeWidth=3;strokeColor=#FF8000;" edge="1" parent="1">
                    <mxGeometry width="50" height="50" relative="1" as="geometry">
                        <mxPoint x="419" y="40" as="sourcePoint"/>
                        <mxPoint x="419" y="80" as="targetPoint"/>
                    </mxGeometry>
                </mxCell>
                <mxCell id="14" value="&lt;font color=&quot;#000000&quot;&gt;state &amp;lt;= 0&lt;/font&gt;" style="text;html=1;strokeColor=none;fillColor=none;align=center;verticalAlign=middle;whiteSpace=wrap;rounded=0;" vertex="1" parent="1">
                    <mxGeometry x="421" y="137" width="60" height="20" as="geometry"/>
                </mxCell>
                <mxCell id="15" value="&lt;font color=&quot;#000000&quot;&gt;en &amp;lt;= 0&lt;/font&gt;" style="text;html=1;strokeColor=none;fillColor=none;align=center;verticalAlign=middle;whiteSpace=wrap;rounded=0;" vertex="1" parent="1">
                    <mxGeometry x="284" y="123" width="61" height="20" as="geometry"/>
                </mxCell>
                <mxCell id="16" value="&lt;font style=&quot;font-size: 12px&quot; color=&quot;#000000&quot;&gt;en = 1&lt;/font&gt;" style="text;html=1;strokeColor=none;fillColor=none;align=center;verticalAlign=middle;whiteSpace=wrap;rounded=0;" vertex="1" parent="1">
                    <mxGeometry x="140" y="270" width="50" height="30" as="geometry"/>
                </mxCell>
                <mxCell id="17" value="&lt;font color=&quot;#000000&quot;&gt;state &amp;lt;= 1&lt;/font&gt;" style="text;html=1;strokeColor=none;fillColor=none;align=center;verticalAlign=middle;whiteSpace=wrap;rounded=0;" vertex="1" parent="1">
                    <mxGeometry x="293" y="137" width="56" height="20" as="geometry"/>
                </mxCell>
                <mxCell id="18" value="" style="endArrow=classic;html=1;strokeWidth=3;exitX=0;exitY=0.5;exitDx=0;exitDy=0;strokeColor=#990099;" edge="1" parent="1" source="16">
                    <mxGeometry width="50" height="50" relative="1" as="geometry">
                        <mxPoint x="130" y="285" as="sourcePoint"/>
                        <mxPoint x="30" y="285" as="targetPoint"/>
                    </mxGeometry>
                </mxCell>
                <mxCell id="19" value="" style="endArrow=classic;html=1;strokeWidth=3;exitX=1;exitY=0.5;exitDx=0;exitDy=0;strokeColor=#990099;" edge="1" parent="1" source="16">
                    <mxGeometry width="50" height="50" relative="1" as="geometry">
                        <mxPoint x="195" y="285" as="sourcePoint"/>
                        <mxPoint x="295" y="285" as="targetPoint"/>
                        <Array as="points">
                            <mxPoint x="250" y="284.5"/>
                        </Array>
                    </mxGeometry>
                </mxCell>
                <mxCell id="20" value="&lt;font color=&quot;#000000&quot;&gt;en &amp;lt;= 0 or en &amp;lt;= 1&lt;/font&gt;" style="text;html=1;strokeColor=none;fillColor=none;align=center;verticalAlign=middle;whiteSpace=wrap;rounded=0;" vertex="1" parent="1">
                    <mxGeometry x="420" y="122" width="108" height="20" as="geometry"/>
                </mxCell>
                <mxCell id="21" value="&lt;font style=&quot;font-size: 12px&quot; color=&quot;#000000&quot;&gt;en = 0&lt;/font&gt;" style="text;html=1;strokeColor=none;fillColor=none;align=center;verticalAlign=middle;whiteSpace=wrap;rounded=0;" vertex="1" parent="1">
                    <mxGeometry x="364" y="270" width="50" height="30" as="geometry"/>
                </mxCell>
                <mxCell id="22" value="" style="endArrow=classic;html=1;strokeWidth=3;exitX=0;exitY=0.5;exitDx=0;exitDy=0;strokeColor=#990099;" edge="1" parent="1" source="21">
                    <mxGeometry width="50" height="50" relative="1" as="geometry">
                        <mxPoint x="357" y="284.5" as="sourcePoint"/>
                        <mxPoint x="295" y="285" as="targetPoint"/>
                    </mxGeometry>
                </mxCell>
                <mxCell id="23" value="" style="endArrow=classic;html=1;strokeWidth=3;exitX=1;exitY=0.5;exitDx=0;exitDy=0;strokeColor=#990099;" edge="1" parent="1" source="21">
                    <mxGeometry width="50" height="50" relative="1" as="geometry">
                        <mxPoint x="440" y="285" as="sourcePoint"/>
                        <mxPoint x="478" y="284.5" as="targetPoint"/>
                    </mxGeometry>
                </mxCell>
                <mxCell id="24" value="" style="endArrow=none;html=1;strokeWidth=3;strokeColor=#990099;" edge="1" parent="1">
                    <mxGeometry width="50" height="50" relative="1" as="geometry">
                        <mxPoint x="293" y="310" as="sourcePoint"/>
                        <mxPoint x="293" y="170" as="targetPoint"/>
                    </mxGeometry>
                </mxCell>
                <mxCell id="25" value="&lt;font color=&quot;#000000&quot;&gt;执行case 0&lt;/font&gt;" style="text;html=1;strokeColor=none;fillColor=none;align=center;verticalAlign=middle;whiteSpace=wrap;rounded=0;" vertex="1" parent="1">
                    <mxGeometry x="290" y="90" width="66" height="20" as="geometry"/>
                </mxCell>
                <mxCell id="26" value="&lt;font color=&quot;#000000&quot;&gt;该时钟上升沿之前en为0，不执行case&lt;/font&gt;" style="text;html=1;strokeColor=none;fillColor=none;align=center;verticalAlign=middle;whiteSpace=wrap;rounded=0;" vertex="1" parent="1">
                    <mxGeometry x="422" y="90" width="110" height="20" as="geometry"/>
                </mxCell>
                <mxCell id="27" value="" style="endArrow=classic;html=1;strokeWidth=3;strokeColor=#000000;" edge="1" parent="1" target="28">
                    <mxGeometry width="50" height="50" relative="1" as="geometry">
                        <mxPoint x="40" y="180" as="sourcePoint"/>
                        <mxPoint x="570" y="180" as="targetPoint"/>
                    </mxGeometry>
                </mxCell>
                <mxCell id="28" value="&lt;font color=&quot;#000000&quot;&gt;clk&lt;/font&gt;" style="text;html=1;strokeColor=none;fillColor=none;align=center;verticalAlign=middle;whiteSpace=wrap;rounded=0;" vertex="1" parent="1">
                    <mxGeometry x="560" y="170" width="30" height="20" as="geometry"/>
                </mxCell>
                <mxCell id="29" value="&lt;font color=&quot;#000000&quot;&gt;执行case 6&lt;/font&gt;" style="text;html=1;strokeColor=none;fillColor=none;align=center;verticalAlign=middle;whiteSpace=wrap;rounded=0;" vertex="1" parent="1">
                    <mxGeometry x="150" y="90" width="66" height="20" as="geometry"/>
                </mxCell>
                <mxCell id="47" value="" style="edgeStyle=orthogonalEdgeStyle;rounded=0;orthogonalLoop=1;jettySize=auto;html=1;" edge="1" parent="1" source="30" target="16">
                    <mxGeometry relative="1" as="geometry"/>
                </mxCell>
                <mxCell id="30" value="&lt;font style=&quot;font-size: 12px&quot; color=&quot;#000000&quot;&gt;finished = 0&lt;/font&gt;" style="text;html=1;strokeColor=none;fillColor=none;align=center;verticalAlign=middle;whiteSpace=wrap;rounded=0;" vertex="1" parent="1">
                    <mxGeometry x="54.5" y="220" width="75" height="30" as="geometry"/>
                </mxCell>
                <mxCell id="31" value="" style="endArrow=classic;html=1;strokeColor=#FF8000;strokeWidth=3;exitX=0;exitY=0.5;exitDx=0;exitDy=0;" edge="1" parent="1" source="30">
                    <mxGeometry width="50" height="50" relative="1" as="geometry">
                        <mxPoint x="90" y="234.5" as="sourcePoint"/>
                        <mxPoint x="20" y="235" as="targetPoint"/>
                    </mxGeometry>
                </mxCell>
                <mxCell id="32" value="" style="endArrow=classic;html=1;strokeColor=#FF8000;strokeWidth=3;exitX=1;exitY=0.5;exitDx=0;exitDy=0;" edge="1" parent="1" source="30">
                    <mxGeometry width="50" height="50" relative="1" as="geometry">
                        <mxPoint x="130" y="235" as="sourcePoint"/>
                        <mxPoint x="155" y="235" as="targetPoint"/>
                        <Array as="points"/>
                    </mxGeometry>
                </mxCell>
                <mxCell id="36" value="" style="endArrow=none;html=1;strokeColor=#FF8000;strokeWidth=3;" edge="1" parent="1">
                    <mxGeometry width="50" height="50" relative="1" as="geometry">
                        <mxPoint x="155" y="250" as="sourcePoint"/>
                        <mxPoint x="155" y="160" as="targetPoint"/>
                    </mxGeometry>
                </mxCell>
                <mxCell id="37" value="&lt;font style=&quot;font-size: 12px&quot; color=&quot;#000000&quot;&gt;finished = 1&lt;/font&gt;" style="text;html=1;strokeColor=none;fillColor=none;align=center;verticalAlign=middle;whiteSpace=wrap;rounded=0;" vertex="1" parent="1">
                    <mxGeometry x="340" y="220" width="70" height="30" as="geometry"/>
                </mxCell>
                <mxCell id="38" value="" style="endArrow=classic;html=1;strokeColor=#FF8000;strokeWidth=3;exitX=0;exitY=0.5;exitDx=0;exitDy=0;" edge="1" parent="1" source="37">
                    <mxGeometry width="50" height="50" relative="1" as="geometry">
                        <mxPoint x="186" y="235" as="sourcePoint"/>
                        <mxPoint x="156" y="235" as="targetPoint"/>
                    </mxGeometry>
                </mxCell>
                <mxCell id="43" value="" style="endArrow=classic;html=1;strokeColor=#FF8000;strokeWidth=3;exitX=1;exitY=0.5;exitDx=0;exitDy=0;" edge="1" parent="1" source="37">
                    <mxGeometry width="50" height="50" relative="1" as="geometry">
                        <mxPoint x="510.5" y="235" as="sourcePoint"/>
                        <mxPoint x="540" y="235" as="targetPoint"/>
                        <Array as="points"/>
                    </mxGeometry>
                </mxCell>
                <mxCell id="45" value="&lt;h1&gt;&lt;font color=&quot;#ff0000&quot;&gt;finished = (state == 0) ? 1 :&amp;nbsp;&lt;/font&gt;&lt;/h1&gt;&lt;h1&gt;&lt;font color=&quot;#ff0000&quot;&gt;&amp;nbsp; &amp;nbsp; &amp;nbsp; &amp;nbsp; &amp;nbsp; &amp;nbsp; &amp;nbsp; &amp;nbsp; &amp;nbsp; ((state == 1) ? finished : 0)&lt;/font&gt;&lt;/h1&gt;" style="text;html=1;strokeColor=none;fillColor=none;align=left;verticalAlign=middle;whiteSpace=wrap;rounded=0;" vertex="1" parent="1">
                    <mxGeometry x="100" y="320" width="439" height="80" as="geometry"/>
                </mxCell>
            </root>
        </mxGraphModel>
    </diagram>
</mxfile>